<?xml version="1.0" encoding="UTF-8"?>
<svg version="1.1" xmlns="http://www.w3.org/2000/svg" width="512" height="512">
<path d="M0 0 C0.71334365 -0.00350607 1.42668729 -0.00701215 2.16164741 -0.01062447 C4.55229173 -0.01992936 6.94269197 -0.01501755 9.33334637 -0.01015663 C11.06452863 -0.01389335 12.79570922 -0.01849495 14.52688712 -0.02388728 C19.28463583 -0.03612998 24.0423143 -0.03585531 28.80007517 -0.03349853 C33.93108018 -0.03309068 39.06206257 -0.04412638 44.19305706 -0.05361366 C54.24576686 -0.07023145 64.2984532 -0.07572356 74.35117558 -0.07683842 C82.52172606 -0.07778849 90.69226879 -0.08189676 98.86281681 -0.08823967 C122.02354281 -0.10585396 145.18425027 -0.11507821 168.34498302 -0.11357872 C169.59376423 -0.11349881 170.84254544 -0.1134189 172.12916851 -0.11333656 C174.00462511 -0.11321392 174.00462511 -0.11321392 175.91796973 -0.1130888 C196.18410056 -0.11227578 216.45015709 -0.13141706 236.71626643 -0.1596133 C257.52116345 -0.18833095 278.32602422 -0.20215422 299.13094157 -0.20042574 C310.81302317 -0.19976147 322.49502688 -0.20527016 334.17709064 -0.22678185 C344.12290712 -0.24497887 354.06861038 -0.24935308 364.01443628 -0.235763 C369.08896494 -0.229226 374.1632763 -0.22914265 379.23778439 -0.2464695 C383.8845611 -0.2621727 388.53094774 -0.25936469 393.17771479 -0.24190123 C394.85736317 -0.23882529 396.53704047 -0.24248611 398.21665476 -0.25362138 C410.24129209 -0.32805129 418.86690878 0.9407182 427.93849468 9.39789391 C435.77683928 17.54429572 437.0256395 24.99041914 436.99498272 36.07961082 C436.99951383 37.27895168 437.00404495 38.47829253 437.00871336 39.71397704 C437.01917364 43.03518001 437.02068493 46.35616619 437.01832461 49.67737019 C437.01791602 53.26235317 437.02895965 56.84730401 437.03843975 60.43227196 C437.05504138 67.45298637 437.06054892 74.47366719 437.06166451 81.49439958 C437.06261537 87.20213647 437.06672756 92.90986229 437.07306576 98.61759567 C437.09067579 114.80579478 437.09990499 130.99396739 437.09840481 147.18217615 C437.0983249 148.05459592 437.09824499 148.92701569 437.09816265 149.82587242 C437.09808089 150.69935936 437.09799913 151.5728463 437.09791489 152.47280254 C437.09710203 166.62807968 437.11624028 180.78325039 437.14443938 194.93849675 C437.17317627 209.4786073 437.18697924 224.01866597 437.18525183 238.55880564 C437.18458821 246.7197457 437.19006815 254.88057419 437.21160793 263.04148865 C437.22983032 269.98996006 437.23415843 276.93826933 437.22058909 283.88675431 C437.21406473 287.43021577 437.21392254 290.97336626 437.23129559 294.51679802 C437.2499571 298.36266751 437.23745779 302.20808438 437.2220335 306.05397606 C437.23232063 307.16760657 437.24260775 308.28123707 437.25320661 309.42861396 C437.16562308 319.31612265 434.31473556 326.25163099 427.58693218 333.46820641 C420.94761739 339.85645467 414.81516612 342.50414381 405.45511436 342.51453781 C404.74177072 342.51804389 404.02842707 342.52154996 403.29346696 342.52516228 C400.90282263 342.53446717 398.5124224 342.52955536 396.121768 342.52469444 C394.39058573 342.52843116 392.65940515 342.53303277 390.92822725 342.53842509 C386.17047853 342.55066779 381.41280007 342.55039312 376.65503919 342.54803634 C371.52403418 342.54762849 366.39305179 342.55866419 361.2620573 342.56815147 C351.20934751 342.58476926 341.15666116 342.59026137 331.10393878 342.59137623 C322.93338831 342.59232631 314.76284558 342.59643457 306.59229755 342.60277748 C283.43157155 342.62039178 260.27086409 342.62961602 237.11013135 342.62811653 C235.86135013 342.62803662 234.61256892 342.62795671 233.32594585 342.62787437 C231.45048925 342.62775173 231.45048925 342.62775173 229.53714464 342.62762661 C209.27101381 342.62681359 189.00495727 342.64595487 168.73884793 342.67415111 C147.93395091 342.70286876 127.12909014 342.71669203 106.32417279 342.71496356 C94.64209119 342.71429928 82.96008748 342.71980797 71.27802372 342.74131966 C61.33220725 342.75951668 51.38650398 342.7638909 41.44067808 342.75030081 C36.36614943 342.74376381 31.29183806 342.74368047 26.21732998 342.76100731 C21.57055326 342.77671051 16.92416662 342.7739025 12.27739958 342.75643905 C10.59775119 342.7533631 8.9180739 342.75702392 7.23845961 342.7681592 C-4.78617773 342.84258911 -13.41179441 341.57381961 -22.48338032 333.11664391 C-30.32172492 324.97024209 -31.57052514 317.52411867 -31.53986835 306.43492699 C-31.54439947 305.23558614 -31.54893058 304.03624529 -31.553599 302.80056077 C-31.56405927 299.47935781 -31.56557057 296.15837163 -31.56321025 292.83716762 C-31.56280165 289.25218464 -31.57384529 285.66723381 -31.58332539 282.08226585 C-31.59992701 275.06155145 -31.60543455 268.04087062 -31.60655014 261.02013823 C-31.607501 255.31240134 -31.61161319 249.60467552 -31.61795139 243.89694214 C-31.63556143 227.70874303 -31.64479062 211.52057042 -31.64329045 195.33236166 C-31.64321053 194.45994189 -31.64313062 193.58752212 -31.64304829 192.68866539 C-31.64296653 191.81517845 -31.64288476 190.94169151 -31.64280052 190.04173527 C-31.64198767 175.88645814 -31.66112591 161.73128742 -31.68932502 147.57604107 C-31.7180619 133.03593051 -31.73186488 118.49587184 -31.73013747 103.95573217 C-31.72947385 95.79479211 -31.73495378 87.63396362 -31.75649357 79.47304916 C-31.77471595 72.52457775 -31.77904406 65.57626848 -31.76547472 58.6277835 C-31.75895036 55.08432204 -31.75880817 51.54117156 -31.77618122 47.99773979 C-31.79484274 44.1518703 -31.78234342 40.30645343 -31.76691914 36.46056175 C-31.77720626 35.34693124 -31.78749339 34.23330074 -31.79809225 33.08592385 C-31.71050872 23.19841516 -28.85962119 16.26290682 -22.13181782 9.04633141 C-15.49250302 2.65808314 -9.36005175 0.010394 0 0 Z " fill="#48DE6D" transform="translate(53.27244281768799,85.74273109436035)"/>
<path d="M0 0 C3.65663771 0.56564115 6.2255574 1.506542 9.34375 3.484375 C10.16681641 4.00064453 10.98988281 4.51691406 11.83789062 5.04882812 C12.71638672 5.61021484 13.59488281 6.17160156 14.5 6.75 C16.39570737 7.94290854 18.29154429 9.13561122 20.1875 10.328125 C21.63769531 11.24561523 21.63769531 11.24561523 23.1171875 12.18164062 C27.55992343 14.98393544 32.03030581 17.74099194 36.5 20.5 C38.25015284 21.58308639 40.0001524 22.66642052 41.75 23.75 C42.61625 24.28625 43.4825 24.8225 44.375 25.375 C47 27 49.625 28.625 52.25 30.25 C53.1172168 30.78681396 53.98443359 31.32362793 54.87792969 31.87670898 C56.61828909 32.95414378 58.3585246 34.03177872 60.09863281 35.10961914 C64.62011004 37.90990036 69.14404186 40.70609937 73.671875 43.49609375 C75.07276367 44.36041016 75.07276367 44.36041016 76.50195312 45.2421875 C78.27067723 46.33334068 80.04014964 47.42328231 81.81054688 48.51171875 C83.42710197 49.50968753 85.03489149 50.52201955 86.6328125 51.54956055 C88.98551851 53.04656415 88.98551851 53.04656415 91.5546875 54.22583008 C95.45799402 56.2715809 97.56786304 57.65219202 98.94628906 61.95141602 C99.43692401 65.62414672 99.55733959 69.10764578 99.5 72.8125 C99.47099609 74.72615356 99.47099609 74.72615356 99.44140625 76.6784668 C98.82782236 87.03740445 98.82782236 87.03740445 95.46875 90.3125 C92.39092097 92.38433704 88.95210502 93.62477074 85.49462891 94.92773438 C80.56473305 97.04675009 76.17970348 100.15377627 71.6875 103.0625 C69.61038922 104.36957359 67.53090915 105.67288872 65.44921875 106.97265625 C64.39009277 107.63539551 63.3309668 108.29813477 62.23974609 108.98095703 C56.84156707 112.34515752 51.42076414 115.672358 46 119 C37.23070401 124.38597601 28.47875879 129.79854206 19.75 135.25 C18.75613281 135.87003906 17.76226562 136.49007812 16.73828125 137.12890625 C12.93679065 139.50681507 9.14620804 141.87814711 5.453125 144.421875 C3 146 3 146 1 146 C-0.67993164 143.84448242 -0.67993164 143.84448242 -2.66015625 140.85546875 C-3.7265332 139.25155273 -3.7265332 139.25155273 -4.81445312 137.61523438 C-5.18320557 137.05280029 -5.55195801 136.49036621 -5.93188477 135.91088867 C-7.05415397 134.2002218 -8.18721508 132.4971278 -9.32226562 130.79492188 C-14.85971841 122.42084478 -14.85971841 122.42084478 -16 119 C-15.28271729 118.59386475 -14.56543457 118.18772949 -13.82641602 117.76928711 C-0.82268409 110.39688923 12.14217731 102.98059174 24.9375 95.25 C32.81628058 90.49569294 40.71499982 85.78332104 48.6875 81.1875 C49.5427124 80.68959961 50.3979248 80.19169922 51.27905273 79.67871094 C55.43848064 77.29709964 59.34997138 75.29960412 64 74 C64 73.34 64 72.68 64 72 C63.2985083 71.73606445 62.5970166 71.47212891 61.87426758 71.20019531 C58.79145123 69.91291721 55.93790245 68.40890434 53.01171875 66.796875 C52.44036697 66.48266602 51.8690152 66.16845703 51.28034973 65.84472656 C49.41414139 64.8165947 47.55065776 63.78364856 45.6875 62.75 C45.04506348 62.39474243 44.40262695 62.03948486 43.74072266 61.67346191 C32.97625026 55.71860485 22.32305386 49.58748055 11.71875 43.3515625 C2.86332085 38.14625342 -6.07031294 33.07650454 -15 28 C-14.42388689 24.04275679 -13.228235 21.35551522 -11.09375 17.98828125 C-10.22556641 16.60479492 -10.22556641 16.60479492 -9.33984375 15.19335938 C-8.73269531 14.24267578 -8.12554687 13.29199219 -7.5 12.3125 C-6.30157302 10.4130823 -5.10363173 8.51335804 -3.90625 6.61328125 C-3.10670898 5.35704956 -3.10670898 5.35704956 -2.29101562 4.07543945 C-0.98533484 2.04791161 -0.98533484 2.04791161 0 0 Z " fill="#FDFEFD" transform="translate(141,180)"/>
<path d="M0 0 C40.59 0 81.18 0 123 0 C123 10.23 123 20.46 123 31 C82.41 31 41.82 31 0 31 C0 20.77 0 10.54 0 0 Z " fill="#FBFDFC" transform="translate(268,325)"/>
<path d="M0 0 C1.2231189 0.52907959 1.2231189 0.52907959 2.47094727 1.06884766 C3.37522461 1.45814453 4.27950195 1.84744141 5.21118164 2.24853516 C6.14381836 2.65587891 7.07645508 3.06322266 8.03735352 3.48291016 C9.43050781 4.08232422 9.43050781 4.08232422 10.85180664 4.69384766 C15.50511472 6.70752119 20.09655888 8.77732362 24.59985352 11.10791016 C24.59985352 11.76791016 24.59985352 12.42791016 24.59985352 13.10791016 C23.00537109 14.32202148 23.00537109 14.32202148 20.74438477 15.68994141 C19.90544678 16.20282715 19.06650879 16.71571289 18.20214844 17.24414062 C17.28151611 17.79730957 16.36088379 18.35047852 15.41235352 18.92041016 C13.46693923 20.10644113 11.5216295 21.29264362 9.57641602 22.47900391 C8.57771484 23.08470215 7.57901367 23.69040039 6.55004883 24.31445312 C2.11322997 27.01164539 -2.29993826 29.74651436 -6.71264648 32.48291016 C-7.56947021 33.01311768 -8.42629395 33.5433252 -9.30908203 34.08959961 C-17.02744324 38.86783653 -24.72398922 43.68072573 -32.41845703 48.49731445 C-40.1367174 53.32616514 -47.87370362 58.12410149 -55.62670898 62.89697266 C-59.08352558 65.02978418 -62.51579339 67.16663545 -65.86108398 69.47119141 C-68.40014648 71.10791016 -68.40014648 71.10791016 -70.40014648 71.10791016 C-72.08007813 68.95239258 -72.08007813 68.95239258 -74.06030273 65.96337891 C-75.12667969 64.35946289 -75.12667969 64.35946289 -76.21459961 62.72314453 C-76.58335205 62.16071045 -76.95210449 61.59827637 -77.33203125 61.01879883 C-78.45430045 59.30813195 -79.58736157 57.60503796 -80.72241211 55.90283203 C-86.25986489 47.52875494 -86.25986489 47.52875494 -87.40014648 44.10791016 C-86.68286377 43.7017749 -85.96558105 43.29563965 -85.2265625 42.87719727 C-72.22286134 35.50481683 -59.25749999 28.08922971 -46.46264648 20.35791016 C-38.59424772 15.60424217 -30.69413659 10.91956468 -22.71264648 6.35791016 C-21.42982788 5.62362793 -21.42982788 5.62362793 -20.12109375 4.87451172 C-17.88824776 3.60503527 -15.64511025 2.35576851 -13.40014648 1.10791016 C-12.32120117 0.48400391 -11.24225586 -0.13990234 -10.13061523 -0.78271484 C-6.29297396 -2.34192818 -3.80296072 -1.41348983 0 0 Z " fill="#F7F8F7" transform="translate(212.400146484375,254.89208984375)"/>
</svg>
