<?xml version="1.0" encoding="UTF-8"?>
<svg xmlns="http://www.w3.org/2000/svg" xmlns:xlink="http://www.w3.org/1999/xlink" width="40px" height="40px" viewBox="0 0 40 40" version="1.1">
<g id="surface1">
<path style=" stroke:none;fill-rule:nonzero;fill:rgb(28.235295%,87.058824%,42.745098%);fill-opacity:1;" d="M 4.160156 6.699219 C 4.21875 6.699219 4.273438 6.699219 4.332031 6.699219 C 4.515625 6.695312 4.703125 6.699219 4.890625 6.699219 C 5.027344 6.699219 5.160156 6.695312 5.296875 6.695312 C 5.667969 6.695312 6.039062 6.695312 6.410156 6.695312 C 6.8125 6.695312 7.214844 6.695312 7.613281 6.695312 C 8.398438 6.691406 9.183594 6.691406 9.96875 6.691406 C 10.609375 6.691406 11.246094 6.691406 11.886719 6.691406 C 13.695312 6.691406 15.503906 6.691406 17.3125 6.691406 C 17.410156 6.691406 17.507812 6.691406 17.609375 6.691406 C 17.757812 6.691406 17.757812 6.691406 17.90625 6.691406 C 19.488281 6.691406 21.070312 6.6875 22.65625 6.6875 C 24.28125 6.683594 25.90625 6.683594 27.53125 6.683594 C 28.445312 6.683594 29.355469 6.683594 30.269531 6.679688 C 31.046875 6.679688 31.824219 6.679688 32.601562 6.679688 C 32.996094 6.679688 33.394531 6.679688 33.789062 6.679688 C 34.152344 6.679688 34.515625 6.679688 34.878906 6.679688 C 35.011719 6.679688 35.140625 6.679688 35.273438 6.679688 C 36.210938 6.671875 36.886719 6.773438 37.59375 7.433594 C 38.207031 8.070312 38.304688 8.652344 38.300781 9.515625 C 38.300781 9.609375 38.304688 9.703125 38.304688 9.800781 C 38.304688 10.0625 38.304688 10.320312 38.304688 10.578125 C 38.304688 10.859375 38.304688 11.140625 38.304688 11.421875 C 38.308594 11.96875 38.308594 12.515625 38.308594 13.066406 C 38.308594 13.511719 38.308594 13.957031 38.308594 14.402344 C 38.308594 15.667969 38.308594 16.933594 38.308594 18.195312 C 38.308594 18.265625 38.308594 18.332031 38.308594 18.402344 C 38.308594 18.472656 38.308594 18.539062 38.308594 18.609375 C 38.308594 19.714844 38.3125 20.824219 38.3125 21.929688 C 38.316406 23.0625 38.316406 24.199219 38.316406 25.335938 C 38.316406 25.972656 38.316406 26.609375 38.320312 27.25 C 38.320312 27.792969 38.320312 28.335938 38.320312 28.878906 C 38.320312 29.152344 38.320312 29.429688 38.320312 29.707031 C 38.320312 30.007812 38.320312 30.308594 38.320312 30.609375 C 38.320312 30.695312 38.320312 30.78125 38.324219 30.871094 C 38.316406 31.644531 38.09375 32.1875 37.566406 32.75 C 37.046875 33.25 36.570312 33.457031 35.839844 33.457031 C 35.78125 33.457031 35.726562 33.457031 35.667969 33.457031 C 35.484375 33.460938 35.296875 33.457031 35.109375 33.457031 C 34.972656 33.457031 34.839844 33.460938 34.703125 33.460938 C 34.332031 33.460938 33.960938 33.460938 33.589844 33.460938 C 33.1875 33.460938 32.785156 33.460938 32.386719 33.460938 C 31.601562 33.464844 30.816406 33.464844 30.03125 33.464844 C 29.390625 33.464844 28.753906 33.464844 28.113281 33.464844 C 26.304688 33.464844 24.496094 33.464844 22.6875 33.464844 C 22.589844 33.464844 22.492188 33.464844 22.390625 33.464844 C 22.242188 33.464844 22.242188 33.464844 22.09375 33.464844 C 20.511719 33.464844 18.929688 33.46875 17.34375 33.46875 C 15.71875 33.472656 14.09375 33.472656 12.46875 33.472656 C 11.554688 33.472656 10.644531 33.472656 9.730469 33.476562 C 8.953125 33.476562 8.175781 33.476562 7.398438 33.476562 C 7.003906 33.476562 6.605469 33.476562 6.210938 33.476562 C 5.847656 33.476562 5.484375 33.476562 5.121094 33.476562 C 4.988281 33.476562 4.859375 33.476562 4.726562 33.476562 C 3.789062 33.484375 3.113281 33.382812 2.40625 32.722656 C 1.792969 32.085938 1.695312 31.503906 1.699219 30.640625 C 1.699219 30.546875 1.695312 30.453125 1.695312 30.355469 C 1.695312 30.09375 1.695312 29.835938 1.695312 29.578125 C 1.695312 29.296875 1.695312 29.015625 1.695312 28.734375 C 1.691406 28.1875 1.691406 27.640625 1.691406 27.089844 C 1.691406 26.644531 1.691406 26.199219 1.691406 25.753906 C 1.691406 24.488281 1.691406 23.222656 1.691406 21.960938 C 1.691406 21.890625 1.691406 21.824219 1.691406 21.753906 C 1.691406 21.683594 1.691406 21.617188 1.691406 21.546875 C 1.691406 20.441406 1.6875 19.332031 1.6875 18.226562 C 1.683594 17.09375 1.683594 15.957031 1.683594 14.820312 C 1.683594 14.183594 1.683594 13.546875 1.679688 12.90625 C 1.679688 12.363281 1.679688 11.820312 1.679688 11.277344 C 1.679688 11.003906 1.679688 10.726562 1.679688 10.449219 C 1.679688 10.148438 1.679688 9.847656 1.679688 9.546875 C 1.679688 9.460938 1.679688 9.375 1.675781 9.285156 C 1.683594 8.511719 1.90625 7.96875 2.433594 7.40625 C 2.953125 6.90625 3.429688 6.699219 4.160156 6.699219 Z M 4.160156 6.699219 "/>
<path style=" stroke:none;fill-rule:nonzero;fill:rgb(99.215686%,99.607843%,99.215686%);fill-opacity:1;" d="M 11.015625 14.0625 C 11.300781 14.105469 11.503906 14.179688 11.746094 14.335938 C 11.808594 14.375 11.875 14.414062 11.941406 14.457031 C 12.007812 14.5 12.078125 14.542969 12.148438 14.589844 C 12.296875 14.683594 12.445312 14.777344 12.59375 14.871094 C 12.707031 14.941406 12.707031 14.941406 12.820312 15.015625 C 13.167969 15.234375 13.519531 15.449219 13.867188 15.664062 C 14.003906 15.75 14.140625 15.832031 14.277344 15.917969 C 14.34375 15.960938 14.414062 16 14.484375 16.046875 C 14.6875 16.171875 14.890625 16.296875 15.097656 16.425781 C 15.164062 16.46875 15.234375 16.507812 15.304688 16.554688 C 15.4375 16.636719 15.574219 16.722656 15.710938 16.804688 C 16.0625 17.023438 16.417969 17.242188 16.769531 17.460938 C 16.878906 17.527344 16.878906 17.527344 16.992188 17.597656 C 17.128906 17.683594 17.269531 17.765625 17.40625 17.851562 C 17.535156 17.929688 17.660156 18.007812 17.785156 18.089844 C 17.96875 18.207031 17.96875 18.207031 18.167969 18.300781 C 18.472656 18.457031 18.636719 18.566406 18.746094 18.902344 C 18.785156 19.1875 18.792969 19.460938 18.789062 19.75 C 18.785156 19.902344 18.785156 19.902344 18.785156 20.054688 C 18.738281 20.863281 18.738281 20.863281 18.472656 21.117188 C 18.234375 21.28125 17.964844 21.375 17.695312 21.480469 C 17.308594 21.644531 16.96875 21.886719 16.617188 22.113281 C 16.453125 22.214844 16.292969 22.316406 16.128906 22.417969 C 16.046875 22.472656 15.964844 22.523438 15.878906 22.578125 C 15.457031 22.839844 15.03125 23.097656 14.609375 23.359375 C 13.925781 23.78125 13.242188 24.203125 12.558594 24.628906 C 12.480469 24.675781 12.402344 24.726562 12.324219 24.777344 C 12.027344 24.960938 11.730469 25.148438 11.441406 25.34375 C 11.25 25.46875 11.25 25.46875 11.09375 25.46875 C 10.960938 25.300781 10.960938 25.300781 10.808594 25.066406 C 10.722656 24.941406 10.722656 24.941406 10.640625 24.8125 C 10.609375 24.769531 10.582031 24.726562 10.550781 24.679688 C 10.464844 24.546875 10.375 24.414062 10.289062 24.28125 C 9.855469 23.625 9.855469 23.625 9.765625 23.359375 C 9.820312 23.328125 9.878906 23.296875 9.933594 23.261719 C 10.953125 22.6875 11.964844 22.109375 12.964844 21.503906 C 13.578125 21.132812 14.195312 20.765625 14.820312 20.40625 C 14.886719 20.367188 14.953125 20.328125 15.023438 20.289062 C 15.347656 20.101562 15.652344 19.945312 16.015625 19.84375 C 16.015625 19.792969 16.015625 19.742188 16.015625 19.6875 C 15.960938 19.667969 15.90625 19.644531 15.847656 19.625 C 15.609375 19.523438 15.386719 19.40625 15.15625 19.28125 C 15.113281 19.257812 15.066406 19.230469 15.023438 19.207031 C 14.875 19.125 14.730469 19.046875 14.585938 18.964844 C 14.535156 18.9375 14.484375 18.910156 14.433594 18.878906 C 13.59375 18.414062 12.757812 17.9375 11.929688 17.449219 C 11.238281 17.042969 10.542969 16.648438 9.84375 16.25 C 9.890625 15.941406 9.980469 15.730469 10.148438 15.46875 C 10.214844 15.359375 10.214844 15.359375 10.285156 15.25 C 10.332031 15.175781 10.378906 15.101562 10.429688 15.023438 C 10.523438 14.875 10.617188 14.726562 10.710938 14.578125 C 10.773438 14.480469 10.773438 14.480469 10.835938 14.382812 C 10.9375 14.222656 10.9375 14.222656 11.015625 14.0625 Z M 11.015625 14.0625 "/>
<path style=" stroke:none;fill-rule:nonzero;fill:rgb(98.431373%,99.215686%,98.823529%);fill-opacity:1;" d="M 20.9375 25.390625 C 24.109375 25.390625 27.28125 25.390625 30.546875 25.390625 C 30.546875 26.191406 30.546875 26.988281 30.546875 27.8125 C 27.375 27.8125 24.203125 27.8125 20.9375 27.8125 C 20.9375 27.011719 20.9375 26.214844 20.9375 25.390625 Z M 20.9375 25.390625 "/>
<path style=" stroke:none;fill-rule:nonzero;fill:rgb(96.862745%,97.254902%,96.862745%);fill-opacity:1;" d="M 16.59375 19.914062 C 16.6875 19.953125 16.6875 19.953125 16.785156 19.996094 C 16.859375 20.027344 16.929688 20.058594 17 20.089844 C 17.074219 20.121094 17.148438 20.152344 17.222656 20.1875 C 17.332031 20.230469 17.332031 20.230469 17.441406 20.28125 C 17.804688 20.4375 18.164062 20.597656 18.515625 20.78125 C 18.515625 20.832031 18.515625 20.882812 18.515625 20.9375 C 18.390625 21.03125 18.390625 21.03125 18.214844 21.140625 C 18.148438 21.179688 18.082031 21.21875 18.015625 21.261719 C 17.945312 21.304688 17.871094 21.347656 17.796875 21.390625 C 17.644531 21.484375 17.492188 21.578125 17.34375 21.667969 C 17.265625 21.71875 17.1875 21.765625 17.105469 21.8125 C 16.757812 22.023438 16.414062 22.238281 16.070312 22.453125 C 16.003906 22.492188 15.933594 22.535156 15.867188 22.578125 C 15.261719 22.949219 14.664062 23.324219 14.0625 23.703125 C 13.457031 24.078125 12.855469 24.453125 12.246094 24.828125 C 11.976562 24.992188 11.710938 25.160156 11.449219 25.339844 C 11.25 25.46875 11.25 25.46875 11.09375 25.46875 C 10.960938 25.300781 10.960938 25.300781 10.808594 25.066406 C 10.722656 24.941406 10.722656 24.941406 10.640625 24.8125 C 10.609375 24.769531 10.582031 24.726562 10.550781 24.679688 C 10.464844 24.546875 10.375 24.414062 10.289062 24.28125 C 9.855469 23.625 9.855469 23.625 9.765625 23.359375 C 9.820312 23.328125 9.878906 23.296875 9.933594 23.261719 C 10.953125 22.6875 11.964844 22.109375 12.964844 21.503906 C 13.578125 21.132812 14.195312 20.765625 14.820312 20.410156 C 14.917969 20.351562 14.917969 20.351562 15.023438 20.292969 C 15.195312 20.195312 15.371094 20.097656 15.546875 20 C 15.632812 19.953125 15.714844 19.902344 15.800781 19.851562 C 16.101562 19.730469 16.296875 19.804688 16.59375 19.914062 Z M 16.59375 19.914062 "/>
</g>
</svg>
